<svg xmlns="http://www.w3.org/2000/svg" viewBox="0 0 1600 1000" width="1600" height="1000" role="img" aria-labelledby="t d">
<title id="t">Six living room wall ideas drawn to scale: one large work above a sofa, a pair flanking a fireplace, a gallery wall, a large photograph on a feature wall, a work beside a television, and a small work above a console with a sculpture beside it</title>
<desc id="d">Six living room wall ideas drawn to scale: one large work above a sofa, a pair flanking a fireplace, a gallery wall, a large photograph on a feature wall, a work beside a television, and a small work above a console with a sculpture beside it</desc>
<style>
  .ink{stroke:#F2F0EC;fill:none;stroke-width:2;stroke-linecap:round;stroke-linejoin:round}
  .soft{stroke:#F2F0EC;stroke-opacity:.55;fill:none;stroke-width:1.5;stroke-linejoin:round}
  .frame{fill:#1A1A20;stroke:#F2F0EC;stroke-width:2}
  .art{fill:#9D7663;fill-opacity:.24}
  .dim{stroke:#9D7663;fill:none;stroke-width:1.25}
  .eye{stroke:#9D7663;fill:none;stroke-width:1.25;stroke-dasharray:10 8}
  .lead{stroke:#9D7663;fill:none;stroke-width:1;stroke-dasharray:3 7;stroke-opacity:.7}
  .l1,.l2{font-family:'Plus Jakarta Sans',Helvetica,Arial,sans-serif;fill:#F2F0EC;font-size:26px;font-weight:500}
  .l2{fill:#A5A3AC;font-size:22px;font-weight:400}
  .tp{fill:#9D7663}
  @media (max-width:560px){
    .l1{font-size:48px}
    .l2{display:none}
    .ink,.frame{stroke-width:3.5}
    .soft{stroke-width:3}
    .dim,.eye{stroke-width:2.75}
  }
  @media (max-width:220px){
    .l1{display:none}
  }
</style>
<!-- scale: 1 in = 3 px; six panels, each a wall 144 by 96 in; floors at y=400 and y=880 -->
<!-- (1) Above the sofa -->
<line class="ink" x1="80" y1="400" x2="512" y2="400"/>
<line class="soft" x1="80" y1="112" x2="512" y2="112"/>
<line class="soft" x1="80" y1="400" x2="80" y2="112"/>
<line class="soft" x1="512" y1="400" x2="512" y2="112"/>
<line class="eye" x1="80" y1="229" x2="512" y2="229"/><line class="eye" x1="80" y1="220" x2="512" y2="220"/>
<rect class="soft" x="170" y="304" width="252" height="48"/><rect class="soft" x="170" y="352" width="252" height="18"/><rect class="soft" x="170" y="322" width="18" height="30"/><rect class="soft" x="404" y="322" width="18" height="30"/><line class="soft" x1="182" y1="370" x2="182" y2="400"/><line class="soft" x1="410" y1="370" x2="410" y2="400"/>
<rect class="frame" x="212" y="163" width="168" height="114"/><rect class="art" x="218" y="169" width="156" height="102"/>
<line class="dim" x1="274" y1="220" x2="318" y2="220" stroke-width="2"/><line class="dim" x1="296" y1="198" x2="296" y2="242" stroke-width="2"/>
<text class="l1" x="296" y="444" text-anchor="middle">Above the sofa</text>
<!-- (2) Flanking a fireplace -->
<line class="ink" x1="584" y1="400" x2="1016" y2="400"/>
<line class="soft" x1="584" y1="112" x2="1016" y2="112"/>
<line class="soft" x1="584" y1="400" x2="584" y2="112"/>
<line class="soft" x1="1016" y1="400" x2="1016" y2="112"/>
<line class="eye" x1="584" y1="229" x2="1016" y2="229"/><line class="eye" x1="584" y1="220" x2="1016" y2="220"/>
<rect class="soft" x="710" y="250" width="180" height="150"/>
<rect class="soft" x="701" y="244" width="198" height="6"/>
<rect class="soft" x="746" y="310" width="108" height="90"/>
<rect class="soft" x="740" y="148" width="120" height="90"/>
<text class="l2" x="800" y="201" text-anchor="middle">mirror</text>
<rect class="frame" x="612.5" y="181" width="60" height="90"/><rect class="art" x="618.5" y="187" width="48" height="78"/>
<line class="dim" x1="620.5" y1="226" x2="664.5" y2="226" stroke-width="2"/><line class="dim" x1="642.5" y1="204" x2="642.5" y2="248" stroke-width="2"/>
<rect class="frame" x="927.5" y="181" width="60" height="90"/><rect class="art" x="933.5" y="187" width="48" height="78"/>
<line class="dim" x1="935.5" y1="226" x2="979.5" y2="226" stroke-width="2"/><line class="dim" x1="957.5" y1="204" x2="957.5" y2="248" stroke-width="2"/>
<text class="l1" x="800" y="444" text-anchor="middle">Flanking a fireplace</text>
<!-- (3) Gallery wall -->
<line class="ink" x1="1088" y1="400" x2="1520" y2="400"/>
<line class="soft" x1="1088" y1="112" x2="1520" y2="112"/>
<line class="soft" x1="1088" y1="400" x2="1088" y2="112"/>
<line class="soft" x1="1520" y1="400" x2="1520" y2="112"/>
<line class="eye" x1="1088" y1="229" x2="1520" y2="229"/><line class="eye" x1="1088" y1="220" x2="1520" y2="220"/>
<rect class="frame" x="1271" y="175" width="66" height="102"/><rect class="art" x="1275" y="179" width="58" height="94"/><rect class="frame" x="1220" y="175" width="43.5" height="60"/><rect class="art" x="1224" y="179" width="35.5" height="52"/><rect class="frame" x="1220" y="242.5" width="18" height="34.5"/><rect class="art" x="1224" y="246.5" width="10" height="26.5"/><rect class="frame" x="1245.5" y="242.5" width="18" height="34.5"/><rect class="art" x="1249.5" y="246.5" width="10" height="26.5"/><rect class="frame" x="1344.5" y="175" width="43.5" height="29.01"/><rect class="art" x="1348.5" y="179" width="35.5" height="21.01"/><rect class="frame" x="1344.5" y="211.51" width="43.5" height="29.01"/><rect class="art" x="1348.5" y="215.51" width="35.5" height="21.01"/><rect class="frame" x="1344.5" y="247.99" width="43.5" height="29.01"/><rect class="art" x="1348.5" y="251.99" width="35.5" height="21.01"/>
<line class="dim" x1="1282" y1="226" x2="1326" y2="226" stroke-width="2"/><line class="dim" x1="1304" y1="204" x2="1304" y2="248" stroke-width="2"/>
<text class="l1" x="1304" y="444" text-anchor="middle">Gallery wall</text>
<!-- (4) Large photograph -->
<line class="ink" x1="80" y1="880" x2="512" y2="880"/>
<line class="soft" x1="80" y1="592" x2="512" y2="592"/>
<line class="soft" x1="80" y1="880" x2="80" y2="592"/>
<line class="soft" x1="512" y1="880" x2="512" y2="592"/>
<line class="eye" x1="80" y1="709" x2="512" y2="709"/><line class="eye" x1="80" y1="700" x2="512" y2="700"/>
<rect class="frame" x="188" y="634" width="216" height="144"/><rect class="art" x="194" y="640" width="204" height="132"/>
<line class="dim" x1="274" y1="706" x2="318" y2="706" stroke-width="2"/><line class="dim" x1="296" y1="684" x2="296" y2="728" stroke-width="2"/>
<text class="l1" x="296" y="924" text-anchor="middle">Large photograph</text>
<!-- (5) Beside the TV -->
<line class="ink" x1="584" y1="880" x2="1016" y2="880"/>
<line class="soft" x1="584" y1="592" x2="1016" y2="592"/>
<line class="soft" x1="584" y1="880" x2="584" y2="592"/>
<line class="soft" x1="1016" y1="880" x2="1016" y2="592"/>
<line class="eye" x1="584" y1="709" x2="1016" y2="709"/><line class="eye" x1="584" y1="700" x2="1016" y2="700"/>
<rect class="soft" x="618" y="820" width="216" height="60"/>
<line class="soft" x1="618" y1="850" x2="834" y2="850"/>
<rect class="soft" x="640.5" y="706" width="171" height="96"/>
<rect class="soft" x="714" y="802" width="24" height="18"/>
<rect class="lead" x="681" y="634" width="90" height="60"/>
<text class="l2" x="726" y="622" text-anchor="middle">not above the TV</text>
<rect class="frame" x="869" y="646" width="90" height="120"/><rect class="art" x="875" y="652" width="78" height="108"/>
<line class="dim" x1="892" y1="706" x2="936" y2="706" stroke-width="2"/><line class="dim" x1="914" y1="684" x2="914" y2="728" stroke-width="2"/>
<text class="l1" x="800" y="924" text-anchor="middle">Beside the TV</text>
<!-- (6) Console and sculpture -->
<line class="ink" x1="1088" y1="880" x2="1520" y2="880"/>
<line class="soft" x1="1088" y1="592" x2="1520" y2="592"/>
<line class="soft" x1="1088" y1="880" x2="1088" y2="592"/>
<line class="soft" x1="1520" y1="880" x2="1520" y2="592"/>
<line class="eye" x1="1088" y1="709" x2="1520" y2="709"/><line class="eye" x1="1088" y1="700" x2="1520" y2="700"/>
<rect class="soft" x="1232" y="778" width="144" height="102"/>
<line class="soft" x1="1232" y1="787" x2="1376" y2="787"/>
<rect class="frame" x="1274" y="664" width="60" height="90"/><rect class="art" x="1280" y="670" width="48" height="78"/>
<line class="dim" x1="1282" y1="709" x2="1326" y2="709" stroke-width="2"/><line class="dim" x1="1304" y1="687" x2="1304" y2="731" stroke-width="2"/>
<rect class="soft" x="1350" y="736" width="24" height="42" rx="8"/>
<line class="soft" x1="1344" y1="778" x2="1376" y2="778"/>
<text class="l1" x="1304" y="924" text-anchor="middle">Console and sculpture</text>
</svg>
